# xmcd
#
# Track frame offsets: 
#        183
#        12965
#        31710
#        47223
#        65338
#        82888
#        97185
#        114330
#        134368
#        149273
#
# Disc length: 2205 seconds
#
# Revision: 3
# Processed by: cddbd v1.5.2PL0 Copyright (c) Steve Scherf et al.
# Submitted via: ExactAudioCopy v0.95b4
#
DISCID=7e089b0a
DTITLE=Gary Morris - Greatest Hits Vol. II
DYEAR=1990
DGENRE=Country
TTITLE0=Why Lady Why
TTITLE1=Second Hand Heart
TTITLE2=Makin' Up For Lost Time (Duet With Crystal Gayle)
TTITLE3=Between Two Fires
TTITLE4=Plain Brown Wrapper
TTITLE5=Don't Look Back
TTITLE6=You're Welcome To Tonight (Duet With Lynn Anderson)
TTITLE7=Honeycomb
TTITLE8=Dreams Die Hard
TTITLE9=Another World (Duet With Crystal Gayle)
EXTD=
EXTT0=
EXTT1=
EXTT2=
EXTT3=
EXTT4=
EXTT5=
EXTT6=
EXTT7=
EXTT8=
EXTT9=
PLAYORDER=
